#!OML:ASF I:\Actors\actors\Patient Classification 2\Patient 1\Session 1\actor1.ASF
:FULLY-SPECIFIED
:DEGREES
829
root -0.727155 18.8045 5.21313 8.24431 -0.100519 -1.0729
lowerback 24.4933 -0.67963 1.8472
upperback 7.71762 -0.362821 1.12701
thorax -5.11438 -0.180725 0.267492
lowerneck -15.9501 -1.02496 0.744674
upperneck 13.7938 -1.78216 1.28758
head 6.83991 -0.699768 0.109922
rclavicle 9.64106e-015 -1.70955e-014
rhumerus 6.5373 53.4202 -92.0996
rradius 125.411
rwrist -7.18354
rhand -31.9678 -45.0606
rfingers 7.12502
rthumb -5.21767 -74.9764
lclavicle 9.64106e-015 -1.70955e-014
lhumerus -4.56956 -41.4966 103.712
lradius 128.193
lwrist 22.2302
lhand -21.6194 325.1
lfingers 7.12502
lthumb 4.77627 -4.97433
rfemur -2.57681 1.40202 15.109
rtibia -7.15625e-015
rfoot -15.2011 -15.918
rtoes -9.25056
lfemur -19.3227 -1.06979 -12.3603
ltibia 27.9398
lfoot -16.3757 7.33023
ltoes -57.4474
830
root -0.649212 18.8003 5.22338 8.0882 -0.0271421 -1.57145
lowerback 24.6621 -0.78973 2.39454
upperback 7.6936 -0.361469 1.249
thorax -5.22491 -0.180503 0.0885144
lowerneck -16.1276 -0.964457 0.915465
upperneck 14.075 -1.73369 1.20585
head 6.95904 -0.670993 0.0590783
rclavicle -1.78906e-015 -1.98785e-016
rhumerus 4.91543 53.4111 -93.348
rradius 125.251
rwrist -5.64547
rhand -31.9488 -44.0836
rfingers 7.12502
rthumb -5.19934 -73.9998
lclavicle -1.78906e-015 -1.98785e-016
lhumerus -5.43825 -41.5897 103.946
lradius 128.258
lwrist 21.8169
lhand -22.5477 324.682
lfingers 7.12502
lthumb 3.8799 -5.37336
rfemur -2.34457 1.39532 15.3972
rtibia 1.59028e-015
rfoot -15.191 -15.8573
rtoes -9.26135
lfemur -19.1512 -0.855149 -12.0908
ltibia 27.9694
lfoot -16.4866 7.08118
ltoes -57.3777
831
root -0.569202 18.7938 5.23605 7.9281 -0.0202877 -2.13873
lowerback 24.7738 -0.900009 2.86294
upperback 7.70952 -0.373749 1.46422
thorax -5.26216 -0.187792 0.0593745
lowerneck -16.3109 -0.90224 0.931735
upperneck 14.2643 -1.64833 1.14289
head 7.05097 -0.632235 0.043653
rclavicle 4.87022e-015 3.77691e-015
rhumerus 5.22867 53.2848 -92.4304
rradius 125.065
rwrist -4.23647
rhand -31.0221 -44.1176
rfingers 7.12502
rthumb -4.30444 -74.0539
lclavicle 4.87022e-015 3.77691e-015
lhumerus -7.09552 -42.6879 104.896
lradius 128.452
lwrist 22.2115
lhand -22.7844 324.047
lfingers 7.12502
lthumb 3.65132 -6.00459
rfemur -2.11062 1.46435 15.7619
rtibia -4.77083e-015
rfoot -15.2479 -15.7885
rtoes -9.18183
lfemur -19.0204 -0.677956 -11.7446
ltibia 28.166
lfoot -16.7754 6.88148
ltoes -57.2255
832
root -0.502919 18.7871 5.25236 7.98342 -0.245336 -1.94927
lowerback 24.6044 -0.744961 2.29449
upperback 7.69098 -0.311712 1.52636
thorax -5.19664 -0.159889 0.432449
lowerneck -16.3865 -0.877094 1.03594
upperneck 14.3002 -1.62812 1.06964
head 7.07406 -0.622885 0.00457293
rclavicle 3.18055e-015 -6.16232e-015
rhumerus 6.18402 51.726 -91.1098
rradius 125.455
rwrist -5.65855
rhand -28.4096 -44.525
rfingers 7.12502
rthumb -1.78147 -74.4973
lclavicle 3.18055e-015 -6.16232e-015
lhumerus -9.14911 -44.3144 106.338
lradius 128.481
lwrist 22.1795
lhand -22.9911 323.613
lfingers 7.12502
lthumb 3.45169 -6.43492
rfemur -2.14406 1.636 15.2916
rtibia -2.38542e-015
rfoot -15.3589 -15.7184
rtoes -9.13293
lfemur -19.1365 -0.505356 -12.2297
ltibia 28.478
lfoot -17.1551 6.81047
ltoes -57.0791
833
root -0.43738 18.7752 5.26269 7.96041 -0.452602 -2.0379
lowerback 24.4508 -0.61127 2.10269
upperback 7.71861 -0.190413 1.55891
thorax -5.08903 -0.101928 0.541553
lowerneck -16.3159 -0.893368 1.15198
upperneck 14.1545 -1.69891 1.20956
head 7.01533 -0.639372 0.0243398
rclavicle 4.96962e-015 1.05356e-014
rhumerus 7.77689 49.5698 -89.4575
rradius 125.83
rwrist -7.54238
rhand -27.1109 -45.1494
rfingers 7.12502
rthumb -0.527232 -75.1285
lclavicle 4.96962e-015 1.05356e-014
lhumerus -12.4897 -46.2856 108.24
lradius 128.478
lwrist 22.0609
lhand -23.26 322.799
lfingers 7.12502
lthumb 3.19205 -7.24547
rfemur -2.11496 1.83777 15.1416
rtibia -2.3059e-014
rfoot -15.422 -15.7034
rtoes -9.63642
lfemur -19.1944 -0.178562 -12.4203
ltibia 28.78
lfoot -17.3777 6.64534
ltoes -57.0723
834
root -0.36463 18.7593 5.26576 7.83065 -0.626726 -2.43019
lowerback 24.4019 -0.577024 2.33648
upperback 7.79754 -0.0923695 1.63811
thorax -4.97697 -0.0541251 0.465635
lowerneck -16.2906 -0.905866 1.09015
upperneck 14.0237 -1.73868 1.44103
head 6.97163 -0.642217 0.105784
rclavicle -2.08724e-015 -1.72943e-014
rhumerus 9.79183 46.9867 -87.793
rradius 125.963
rwrist -9.36562
rhand -27.6522 -44.6123
rfingers 7.12502
rthumb -1.05003 -74.5894
lclavicle -2.08724e-015 -1.72943e-014
lhumerus -14.569 -48.3484 109.815
lradius 128.237
lwrist 22.5932
lhand -22.7058 322.787
lfingers 7.12502
lthumb 3.7272 -7.26631
rfemur -1.97936 2.05927 15.32
rtibia -7.15625e-015
rfoot -15.4581 -15.6973
rtoes -9.99076
lfemur -19.1597 0.18718 -12.277
ltibia 29.0697
lfoot -17.5614 6.4281
ltoes -57.0249
835
root -0.290657 18.7461 5.26432 7.89357 -0.950817 -1.91689
lowerback 24.2289 -0.431301 1.76047
upperback 7.81978 -0.0596353 1.43661
thorax -4.86822 -0.0385919 0.565764
lowerneck -16.3532 -0.910157 1.04439
upperneck 13.9633 -1.76204 1.60491
head 6.96497 -0.641293 0.163785
rclavicle -2.5842e-015 8.94531e-015
rhumerus 11.9414 44.4219 -86.3945
rradius 125.49
rwrist -9.4581
rhand -29.1469 -44.5495
rfingers 7.12502
rthumb -2.49362 -74.5146
lclavicle -2.5842e-015 8.94531e-015
lhumerus -16.1908 -50.6629 111.137
lradius 127.776
lwrist 23.509
lhand -22.1324 322.475
lfingers 7.12502
lthumb 4.28091 -7.58827
rfemur -2.09695 2.27717 14.4631
rtibia 1.19271e-014
rfoot -15.4097 -15.731
rtoes -10.2401
lfemur -19.3722 0.457771 -13.1475
ltibia 29.3996
lfoot -17.7797 6.3208
ltoes -56.8639
836
root -0.217412 18.7337 5.25677 7.9918 -1.23046 -1.38672
lowerback 24.1125 -0.276351 1.14662
upperback 7.77131 -0.0131948 1.30439
thorax -4.86475 -0.0179417 0.76009
lowerneck -16.338 -0.924802 0.923644
upperneck 13.9318 -1.75845 1.64101
head 6.95341 -0.643273 0.19565
rclavicle -2.88238e-015 5.76476e-015
rhumerus 13.6439 41.9531 -85.5102
rradius 125.09
rwrist -9.71238
rhand -30.1955 -44.9982
rfingers 7.12502
rthumb -3.50625 -74.9491
lclavicle -2.88238e-015 5.76476e-015
lhumerus -17.512 -52.3666 112.187
lradius 126.95
lwrist 21.9117
lhand -22.3073 321.885
lfingers 7.12502
lthumb 4.11201 -8.17537
rfemur -2.28655 2.44092 13.5942
rtibia 1.59028e-015
rfoot -15.2287 -15.8528
rtoes -10.7773
lfemur -19.6749 0.7989 -14.037
ltibia 29.7323
lfoot -17.8435 6.1571
ltoes -56.793
837
root -0.144743 18.7228 5.24908 8.04126 -1.4293 -1.31052
lowerback 24.0081 -0.200875 1.06888
upperback 7.75413 0.0623242 1.2937
thorax -4.83217 0.0181492 0.771739
lowerneck -16.4129 -0.962509 0.726814
upperneck 14.0166 -1.76583 1.64305
head 6.99522 -0.655859 0.22707
rclavicle -1.39149e-015 -7.15625e-015
rhumerus 14.3223 40.4269 -85.3421
rradius 124.881
rwrist -10.0343
rhand -28.799 -46.1188
rfingers 7.12502
rthumb -2.15755 -76.0876
lclavicle -1.39149e-015 -7.15625e-015
lhumerus -17.1855 -52.2827 111.762
lradius 126.885
lwrist 21.9726
lhand -18.5487 322.401
lfingers 7.12502
lthumb 7.74073 -7.76071
rfemur -2.42749 2.59509 13.2303
rtibia -1.19271e-014
rfoot -15.0453 -15.9996
rtoes -11.2166
lfemur -19.9154 1.1621 -14.4136
ltibia 30.0188
lfoot -17.8337 5.99796
ltoes -56.798
838
root -0.07164 18.7153 5.24928 8.08641 -1.70538 -1.2689
lowerback 23.8909 -0.092955 1.07972
upperback 7.72211 0.197463 1.25606
thorax -4.80952 0.0837071 0.687538
lowerneck -16.4294 -1.02069 0.577538
upperneck 14.1001 -1.8081 1.62757
head 7.02635 -0.684639 0.241581
rclavicle -3.57812e-015 1.03368e-014
rhumerus 13.897 40.4148 -85.7826
rradius 124.825
rwrist -9.63815
rhand -29.9776 -45.7044
rfingers 7.12502
rthumb -3.29584 -75.6586
lclavicle -3.57812e-015 1.03368e-014
lhumerus -15.9295 -51.9785 110.565
lradius 126.792
lwrist 22.1589
lhand -19.1701 323.329
lfingers 7.12502
lthumb 7.14092 -6.8118
rfemur -2.56188 2.82961 12.8854
rtibia 0
rfoot -14.9469 -16.1386
rtoes -11.5548
lfemur -20.0887 1.49962 -14.7506
ltibia 30.283
lfoot -17.9015 5.86714
ltoes -56.6954
839
root 0.000224811 18.7121 5.25288 8.07705 -1.94251 -1.24898
lowerback 23.6412 0.0144664 1.16053
upperback 7.8185 0.342303 1.20855
thorax -4.57955 0.155283 0.550269
lowerneck -16.339 -1.07012 0.547376
upperneck 13.9912 -1.84981 1.54348
head 6.975 -0.715593 0.215378
rclavicle -3.18055e-015 -1.23246e-014
rhumerus 12.8444 41.2769 -86.7023
rradius 124.937
rwrist -9.01397
rhand -31.2888 -43.9799
rfingers 7.12502
rthumb -4.56197 -73.9108
lclavicle -3.18055e-015 -1.23246e-014
lhumerus -13.4347 -51.1859 108.362
lradius 126.939
lwrist 23.9769
lhand -18.6214 324.647
lfingers 7.12502
lthumb 7.67056 -5.51196
rfemur -2.61768 3.03573 12.5688
rtibia 7.95139e-016
rfoot -14.9204 -16.2149
rtoes -11.592
lfemur -20.1467 1.74357 -15.0441
ltibia 30.4812
lfoot -18.0144 5.72271
ltoes -56.4848
840
root 0.0666927 18.7147 5.25471 7.9469 -2.06961 -1.16938
lowerback 23.7215 0.0773782 1.49853
upperback 7.84572 0.487383 1.03203
thorax -4.58502 0.229699 0.127656
lowerneck -16.3546 -1.20547 0.412898
upperneck 14.1022 -2.02058 1.64162
head 7.01712 -0.794404 0.250566
rclavicle -3.37934e-015 -1.03368e-014
rhumerus 10.8097 42.825 -88.3092
rradius 124.81
rwrist -6.86662
rhand -31.7568 -43.1544
rfingers 7.12502
rthumb -5.01389 -73.0751
lclavicle -3.37934e-015 -1.03368e-014
lhumerus -11.1203 -50.3689 106.227
lradius 127.05
lwrist 25.3773
lhand -19.1829 325.677
lfingers 7.12502
lthumb 7.12863 -4.46313
rfemur -2.51324 3.14276 12.2174
rtibia -1.59028e-015
rfoot -14.9111 -16.2343
rtoes -11.3454
lfemur -20.0299 1.84583 -15.3756
ltibia 30.5577
lfoot -18.0997 5.67533
ltoes -56.3686
841
root 0.124764 18.7199 5.2598 7.77591 -2.24187 -1.03901
lowerback 23.8741 0.282436 1.83438
upperback 7.85623 0.822472 0.944666
thorax -4.63976 0.395088 -0.249461
lowerneck -16.4029 -1.54458 -0.208685
upperneck 14.2957 -2.38901 1.94424
head 7.10203 -0.974574 0.409722
rclavicle 5.1684e-015 4.57205e-015
rhumerus 8.36383 44.3568 -89.9422
rradius 124.632
rwrist -5.29257
rhand -30.5504 -44.3493
rfingers 7.12502
rthumb -3.849 -74.2943
lclavicle 5.1684e-015 4.57205e-015
lhumerus -9.17023 -49.4713 104.816
lradius 127.219
lwrist 26.2182
lhand -20.1013 326.145
lfingers 7.12502
lthumb 6.24206 -3.96722
rfemur -2.35545 3.29813 11.8466
rtibia 6.36111e-015
rfoot -14.8275 -16.2705
rtoes -11.4676
lfemur -19.7863 1.86087 -15.7265
ltibia 30.5217
lfoot -18.1493 5.76562
ltoes -56.2912
842
root 0.178005 18.7247 5.26894 7.6747 -2.42127 -0.872224
lowerback 24.0768 0.173811 1.57929
upperback 7.75334 0.609055 0.616361
thorax -4.85597 0.290689 -0.402613
lowerneck -16.4088 -1.23055 0.779394
upperneck 14.5385 -2.13586 1.5487
head 7.16468 -0.832644 0.146775
rclavicle -3.37934e-015 5.56597e-015
rhumerus 5.86044 46.616 -92.873
rradius 124.588
rwrist -5.49948
rhand -30.5334 -43.2368
rfingers 7.12502
rthumb -3.83253 -73.1821
lclavicle -3.37934e-015 5.56597e-015
lhumerus -7.30971 -47.4401 102.821
lradius 127.508
lwrist 26.5533
lhand -20.8787 326.497
lfingers 7.12502
lthumb 5.4915 -3.59443
rfemur -2.26439 3.44924 11.4576
rtibia -1.03368e-014
rfoot -14.7059 -16.306
rtoes -11.9508
lfemur -19.5624 1.82461 -16.0896
ltibia 30.4092
lfoot -18.198 5.84914
ltoes -56.0653
843
root 0.228704 18.7279 5.27973 7.61431 -2.54007 -0.687894
lowerback 24.1991 0.152705 1.31081
upperback 7.68171 0.515617 0.501956
thorax -4.99872 0.243795 -0.348278
lowerneck -16.4579 -1.10475 1.1443
upperneck 14.6642 -2.01583 1.32033
head 7.20752 -0.774342 0.0252342
rclavicle -4.96962e-016 -3.97569e-016
rhumerus 3.34426 48.8083 -95.204
rradius 124.563
rwrist -5.08962
rhand -31.4634 -42.373
rfingers 7.12502
rthumb -4.73062 -72.3002
lclavicle -4.96962e-016 -3.97569e-016
lhumerus -5.68412 -45.5647 101.857
lradius 127.696
lwrist 27.0892
lhand -21.1135 326.846
lfingers 7.12502
lthumb 5.26475 -3.23984
rfemur -2.19653 3.53476 11.0687
rtibia 1.59028e-014
rfoot -14.6605 -16.3247
rtoes -12.2294
lfemur -19.386 1.86046 -16.4774
ltibia 30.2885
lfoot -18.2619 5.8504
ltoes -55.9131
